<?xml version="1.0" encoding="utf-8"?>
<!-- Generator: Adobe Illustrator 24.1.2, SVG Export Plug-In . SVG Version: 6.00 Build 0)  -->
<svg version="1.1" id="Layer_1" xmlns="http://www.w3.org/2000/svg" xmlns:xlink="http://www.w3.org/1999/xlink" x="0px" y="0px"
	 viewBox="0 0 480 486" style="enable-background:new 0 0 480 486;" xml:space="preserve">
<style type="text/css">
	.st0{fill:none;stroke:#000000;stroke-width:3;stroke-miterlimit:10;}
	.st1{stroke:#000000;stroke-width:3;stroke-miterlimit:10;}
</style>
<path class="st0" d="M116.4,347.5l2.7-31.7l-71.8-127c0,0-4.3,3.9-5.5,6.2c-1.2,2.3-4.7,17.2-4.4,18.3c0.3,1-1,1.3-1,1.3l-4.1,1.4
	l78.1,138.5L116.4,347.5z"/>
<path class="st0" d="M119.1,315.8c0,0,16.7-7.5,17.7-8.9s22.8-13.3,24.2-14.6s22.1-14,25.5-15.3c3.4-1.4,27.6-12.9,31.3-13.6
	c3.7-0.7,13.6-3.1,17.4-3.1c3.7,0,28.6-0.3,32,0s3.4,0.3,3.4,0.3l-95-100.1c0,0-17.6-13.3-21.8-14.2s-11.6-3.2-16.7-2
	s-33.8,7.9-37.1,10.2c-3.3,2.3-19.9,12.8-19.9,12.8l-14,10.5l-18.7,11.1"/>
<path class="st1" d="M115.4,348.7l1.9,2.5l11.5-7.1l37-22l41.6-20.4c0,0,14-4.9,22.2-7.1c8.2-2.3,28.9,0,28.9,0s0-9.2,1.8-13
	s3.1-8.4,5.1-11.2c2-2.8,5.2-6.6,5.2-6.6l5.5,2l-3.8,8.7l0.8,1.5c0,0,4.9-2.4,6.6-3c1.7-0.6,4.2-1.2,5.9-1.4c1.7-0.2,3.5,0,4.2,0.5
	s3,3.6,3.5,4.7c0.5,1.1,1.5,7.1,1.5,7.4s0.9,8.7,0.9,8.7s-8,4.9-12.3,6.4c-4.3,1.5-6.9,2.7-12.7,3.4c-5.8,0.7-10.7,1.1-12.6,0.7
	s-9.4-2.1-9.4-2.1l-48.8,19.7l-49,22.2l-38.6,20.2l-3.2-5.8L115.4,348.7z"/>
<polygon class="st1" points="37.2,214.2 39.9,215.4 115,346.8 109.6,353 32.3,216 "/>
<line class="st1" x1="271.8" y1="262.2" x2="277.8" y2="264.4"/>
<path class="st0" d="M305,285.5l-6,5.2l-2,1.1l-0.8-9.1c0,0,4.3-4.2,7.4-7.1s18.5-11.2,23.2-13.4c4.8-2.2,21.6-2.7,21.6-2.7
	s12.8-1.3,19.9-1.8c7.1-0.5,59.2-1,59.2-1v-1.5c-1-3.8-5.4-22-5.4-22l0.5-11.3h-2.3c0,0-41.5,2.7-46.6,2.7s-34.2,3.2-39.1,3.7
	c-4.9,0.5-9.5,1.7-14.5,2.6c-4.9,0.9-13.8,3.7-21.6,7.8c-7.8,4.1-15.6,13.7-16.4,14.4c-0.9,0.6-6.4,9.1-6.4,9.1"/>
<polygon points="296.1,282.7 306.1,273.6 323.9,263.6 331.6,260 345.2,259.6 368.3,257.7 412.9,256.8 427.6,256.7 422.2,231.9 
	425.9,234 445.8,250.5 444.6,266.3 344.8,279.2 318.1,283.7 308.1,285 302.5,287.6 299,290.6 296.9,290.6 "/>
<path class="st0" d="M422.7,221.9l-125.2-94.8c0,0-12.9,2.6-19.7,3.2c-6.8,0.7-32.7,0-32.7,0s-17.5-0.9-22.6,0.5
	c-5.1,1.4-20.6,4.4-24.5,7.8c-3.9,3.4-6.8,3.7-10.2,7.7c-3.4,3.9-11.3,15.2-11.3,15.2"/>
</svg>
